<?xml version="1.0" encoding="utf-8"?><svg xmlns="http://www.w3.org/2000/svg"><symbol viewBox="0 0 24 24" id="cart-add"><path d="M21.2922 6L19.9463 14.1627C19.8666 14.6457 19.4491 15 18.9596 15H7.04304C6.55355 15 6.136 14.6457 6.05636 14.1627L4.84851 6.83731C4.76887 6.35434 4.35133 6 3.86183 6H2"/><path d="M8 20C8.55228 20 9 19.5523 9 19C9 18.4477 8.55228 18 8 18C7.44772 18 7 18.4477 7 19C7 19.5523 7.44772 20 8 20Z"/><path d="M18 20C18.5523 20 19 19.5523 19 19C19 18.4477 18.5523 18 18 18C17.4477 18 17 18.4477 17 19C17 19.5523 17.4477 20 18 20Z"/><path d="M16 8H10"/><path d="M13 5V11"/></symbol><symbol viewBox="0 0 24 24" id="support"><path d="M18,9 L16,9 C14.8954305,9 14,9.8954305 14,11 L14,13 C14,14.1045695 14.8954305,15 16,15 L16,15 C17.1045695,15 18,14.1045695 18,13 L18,9 C18,4.02943725 13.9705627,0 9,0 C4.02943725,0 0,4.02943725 0,9 L0,13 C1.3527075e-16,14.1045695 0.8954305,15 2,15 L2,15 C3.1045695,15 4,14.1045695 4,13 L4,11 C4,9.8954305 3.1045695,9 2,9 L0,9" transform="translate(3 3)"/><path d="M21,14 L21,18 C21,20 20.3333333,21 19,21 C17.6666667,21 16,21 14,21"/></symbol><symbol viewBox="0 0 24 24" id="arrow-up-circle"><path d="M9 10.5l3-3 3 3"/><path d="M12 16.5V9"/><path stroke-linecap="round" d="M12 7.5V9"/><circle cx="12" cy="12" r="10"/></symbol><symbol viewBox="0 0 24 24" id="user"><path stroke-linecap="round" d="M5.5,19.5 C7.83333333,18.5 9.33333333,17.6666667 10,17 C11,16 8,16 8,11 C8,7.66666667 9.33333333,6 12,6 C14.6666667,6 16,7.66666667 16,11 C16,16 13,16 14,17 C14.6666667,17.6666667 16.1666667,18.5 18.5,19.5"/><circle cx="12" cy="12" r="10"/></symbol><symbol viewBox="0 0 24 24" id="restaurant"><path d="M8 4L8 20M18 12C16 11.3333333 15 10 15 8 15 6 16 4.66666667 18 4L18 20 18 12zM5 4L5 7C5 8.65685425 6.34314575 10 8 10L8 10C9.65685425 10 11 8.65685425 11 7L11 4"/></symbol></svg>